<?xml version="1.0" encoding="UTF-8"?>
<!DOCTYPE svg PUBLIC "-//W3C//DTD SVG 1.1//EN" "http://www.w3.org/Graphics/SVG/1.1/DTD/svg11.dtd">
<!-- Creator: CorelDRAW X8 -->
<svg xmlns="http://www.w3.org/2000/svg" xml:space="preserve" width="220px" height="74px" version="1.1" style="shape-rendering:geometricPrecision; text-rendering:geometricPrecision; image-rendering:optimizeQuality; fill-rule:evenodd; clip-rule:evenodd"
viewBox="0 0 22000 7400"
 xmlns:xlink="http://www.w3.org/1999/xlink">
 <defs>
  <style type="text/css">
   <![CDATA[
    .fil1 {fill:#E62E04}
    .fil0 {fill:#FF9900}
    .fil3 {fill:#333333;fill-rule:nonzero}
    .fil2 {fill:#E62E04;fill-rule:nonzero}
   ]]>
  </style>
 </defs>
 <g id="Layer_x0020_1">
  <metadata id="CorelCorpID_0Corel-Layer"/>
  <g id="Layer_x0020_1_0">
   <polygon class="fil0" points="4984,658 5584,658 5584,5658 4984,5658 "/>
   <path class="fil0" d="M2842 658l-557 0 -1801 5000 600 0 433 -1200 2094 0 432 1200 600 0 -1801 -5000 0 0zm-1109 3200l831 -2307 831 2307 -1662 0 0 0z"/>
   <path class="fil1" d="M10784 658c-853,1467 -1706,2934 -2559,4400l2359 0 0 600 -3400 0 2560 -4400 -2360 0 0 -600 3400 0z"/>
   <polygon class="fil0" points="6184,2058 6784,2058 6784,5658 6184,5658 "/>
   <path class="fil0" d="M6484 58l0 0c0,495 405,900 900,900l0 0c-495,0 -900,405 -900,900l0 0c0,-495 -405,-900 -900,-900l0 0c495,0 900,-405 900,-900z"/>
   <path class="fil1" d="M15184 58l0 0c0,495 405,900 900,900l0 0c-495,0 -900,405 -900,900l0 0c0,-495 -405,-900 -900,-900l0 0c495,0 900,-405 900,-900z"/>
   <path class="fil2" d="M12427 1973c483,0 923,181 1257,480l0 -395 601 0 0 3600 -601 0 0 -395c-334,299 -775,481 -1257,481 -519,0 -990,-211 -1332,-552l-1 -2c-342,-341 -553,-813 -553,-1332 0,-519 212,-991 553,-1332l0 -1c341,-341 812,-552 1333,-552zm1257 1952l0 -133c-16,-321 -154,-611 -367,-824 -228,-228 -542,-369 -890,-369 -348,0 -662,141 -890,369l-1 0c-227,227 -368,542 -368,890 0,349 141,664 368,890l1 2c227,227 541,367 890,367 349,0 663,-140 890,-367l0 -2c213,-213 351,-502 367,-823z"/>
   <path class="fil2" d="M18623 2521c341,-515 885,-548 1117,-548 1026,0 1141,864 1144,1379l0 346 0 1960 -600 0 0 -1960 0 -225c0,-408 -61,-874 -637,-874 -703,0 -863,622 -863,1056l0 43 0 1960 -600 0 0 -1960 0 -225c0,-408 -61,-874 -637,-874 -703,0 -863,622 -863,1056l0 43 0 1960 -600 0 0 -3600 600 0 0 266c332,-327 758,-351 956,-351 544,0 832,243 983,548l0 0z"/>
   <polygon class="fil1" points="14884,2058 15484,2058 15484,5658 14884,5658 "/>
   <path class="fil3" d="M553 6266c65,-75 144,-112 239,-112 76,0 138,22 187,65 49,43 74,99 74,168 0,98 -46,168 -138,210 121,37 181,118 181,243 0,83 -27,150 -81,201 -54,50 -128,76 -222,76 -66,0 -123,-14 -172,-41 -48,-27 -94,-75 -137,-143l71 -42c43,62 83,102 120,120 37,18 75,27 115,27 59,0 108,-17 149,-51 41,-33 61,-83 61,-148 0,-35 -7,-65 -20,-90 -15,-26 -34,-46 -59,-62 -26,-16 -50,-26 -73,-30 -23,-4 -60,-6 -113,-6l-16 0 0 -81 31 0c136,0 204,-55 204,-165 0,-51 -15,-92 -46,-122 -31,-30 -70,-45 -118,-45 -62,0 -120,28 -174,84l-63 -56 0 0zm1385 150l0 678 -87 0 0 -117c-37,45 -78,78 -123,100 -45,22 -95,33 -149,33 -96,0 -178,-34 -246,-104 -68,-69 -101,-154 -101,-253 0,-97 34,-181 102,-250 69,-69 151,-104 248,-104 55,0 105,12 150,35 45,24 85,59 119,106l0 -124 87 0 0 0zm-350 67c-48,0 -93,12 -134,36 -41,24 -74,57 -98,100 -24,43 -36,89 -36,137 0,47 12,93 36,136 25,44 58,78 99,102 41,24 85,36 133,36 47,0 93,-12 135,-36 43,-24 76,-57 99,-98 23,-40 34,-87 34,-138 0,-78 -26,-143 -77,-196 -52,-53 -115,-79 -191,-79l0 0zm1029 284l-395 0 0 327 -87 0 0 -678 87 0 0 269 395 0 0 -269 87 0 0 678 -87 0 0 -327zm368 -351l0 502 499 -502 7 0 0 678 -87 0 0 -499 -495 499 -10 0 0 -678 86 0 0 0zm1439 0l25 0 229 678 -91 0 -168 -498 -261 498 -16 0 -262 -500 -168 500 -91 0 232 -678 23 0 274 530 274 -530zm1059 0l0 678 -86 0 0 -117c-37,45 -78,78 -123,100 -46,22 -96,33 -149,33 -96,0 -178,-34 -246,-104 -68,-69 -102,-154 -102,-253 0,-97 35,-181 103,-250 68,-69 151,-104 247,-104 56,0 106,12 151,35 45,24 85,59 119,106l0 -124 86 0zm-349 67c-49,0 -93,12 -134,36 -41,24 -74,57 -98,100 -24,43 -37,89 -37,137 0,47 13,93 37,136 24,44 57,78 99,102 41,24 85,36 132,36 48,0 93,-12 136,-36 43,-24 75,-57 98,-98 23,-40 35,-87 35,-138 0,-78 -26,-143 -78,-196 -51,-53 -115,-79 -190,-79l0 0zm633 -67l0 502 499 -502 7 0 0 678 -87 0 0 -499 -495 499 -11 0 0 -678 87 0zm-11 -274l81 0c15,22 34,38 58,49 23,11 52,17 84,17 34,0 61,-5 81,-15 21,-10 40,-26 58,-51l80 0c-10,38 -33,69 -70,94 -38,25 -88,38 -149,38 -61,0 -111,-12 -150,-37 -38,-25 -63,-56 -73,-95zm992 274l91 0 234 520 227 -520 93 0 -405 926 -93 0 133 -304 -280 -622 0 0zm1496 0l25 0 229 678 -91 0 -168 -498 -261 498 -16 0 -262 -500 -168 500 -91 0 232 -678 24 0 273 530 274 -530zm867 351l-396 0 0 327 -87 0 0 -678 87 0 0 269 396 0 0 -269 87 0 0 678 -87 0 0 -327zm853 102l74 39c-24,47 -52,85 -84,114 -32,29 -67,51 -107,66 -39,15 -84,22 -134,22 -111,0 -198,-36 -260,-108 -63,-73 -94,-154 -94,-245 0,-86 26,-163 79,-230 67,-85 157,-128 270,-128 116,0 209,44 278,131 49,62 74,139 75,232l-613 0c2,78 27,143 76,193 49,50 109,75 181,75 35,0 69,-6 101,-18 33,-12 61,-28 84,-47 23,-20 48,-52 74,-96l0 0zm1 -183c-11,-46 -28,-83 -51,-111 -22,-28 -52,-50 -89,-67 -37,-17 -75,-26 -116,-26 -67,0 -124,21 -172,64 -36,31 -62,78 -80,140l508 0 0 0zm829 183l74 39c-24,47 -52,85 -84,114 -32,29 -67,51 -107,66 -40,15 -84,22 -134,22 -111,0 -198,-36 -261,-108 -62,-73 -93,-154 -93,-245 0,-86 26,-163 79,-230 67,-85 157,-128 270,-128 116,0 209,44 278,131 49,62 74,139 75,232l-613 0c2,78 27,143 76,193 49,50 109,75 181,75 35,0 68,-6 101,-18 33,-12 61,-28 84,-47 23,-20 48,-52 74,-96l0 0zm1 -183c-12,-46 -29,-83 -51,-111 -22,-28 -52,-50 -89,-67 -37,-17 -75,-26 -116,-26 -67,0 -124,21 -172,64 -36,31 -62,78 -80,140l508 0 0 0zm344 239l84 40 -126 236 -62 -26 104 -250 0 0zm968 -509l87 0 0 298 324 -298 107 0 -319 301 343 377 -112 0 -293 -328 -50 42 0 286 -87 0 0 -286 -48 -42 -292 328 -112 0 340 -376 -314 -302 106 0 320 298 0 -298 0 0zm721 0l0 502 499 -502 6 0 0 678 -86 0 0 -499 -495 499 -11 0 0 -678 87 0 0 0zm897 678l-197 0 0 -678 194 0c74,0 128,17 160,51 33,34 49,73 49,119 0,69 -30,115 -91,139 88,32 132,92 132,181 0,125 -82,188 -247,188l0 0zm-110 -603l0 211 57 0c52,0 86,-2 101,-6 16,-5 31,-15 45,-31 14,-17 21,-38 21,-65 0,-28 -7,-52 -22,-70 -14,-20 -30,-31 -46,-34 -16,-3 -49,-5 -99,-5l-57 0 0 0zm0 291l0 238 93 0c45,0 77,-3 95,-9 19,-5 36,-17 49,-36 14,-19 21,-42 21,-71 0,-37 -12,-67 -36,-89 -23,-22 -54,-33 -92,-33l-130 0zm597 -366l0 502 499 -502 7 0 0 678 -87 0 0 -499 -495 499 -11 0 0 -678 87 0zm1251 678l-197 0 0 -678 194 0c74,0 128,17 160,51 33,34 49,73 49,119 0,69 -30,115 -91,139 88,32 132,92 132,181 0,125 -82,188 -247,188l0 0zm-110 -603l0 211 57 0c52,0 86,-2 101,-6 16,-5 31,-15 45,-31 14,-17 21,-38 21,-65 0,-28 -7,-52 -22,-70 -14,-20 -30,-31 -46,-34 -16,-3 -49,-5 -99,-5l-57 0 0 0zm0 291l0 238 93 0c45,0 76,-3 95,-9 19,-5 36,-17 49,-36 14,-19 21,-42 21,-71 0,-37 -12,-67 -36,-89 -23,-22 -54,-33 -92,-33l-130 0zm1083 87l73 39c-24,47 -52,85 -83,114 -32,29 -68,51 -107,66 -40,15 -85,22 -135,22 -111,0 -198,-36 -260,-108 -63,-73 -94,-154 -94,-245 0,-86 27,-163 80,-230 67,-85 157,-128 269,-128 116,0 209,44 278,131 49,62 75,139 75,232l-613 0c2,78 27,143 76,193 49,50 110,75 181,75 35,0 69,-6 102,-18 32,-12 60,-28 83,-47 23,-20 48,-52 75,-96l0 0zm1 -183c-12,-46 -29,-83 -51,-111 -23,-28 -53,-50 -89,-67 -37,-17 -76,-26 -116,-26 -67,0 -125,21 -173,64 -35,31 -62,78 -80,140l509 0 0 0zm915 -129l-69 43c-60,-80 -142,-119 -246,-119 -83,0 -152,26 -207,79 -54,53 -82,118 -82,194 0,49 13,95 38,139 25,43 60,77 104,101 44,24 93,36 148,36 100,0 181,-40 245,-119l69 46c-32,48 -76,86 -131,113 -55,27 -117,40 -187,40 -108,0 -197,-34 -268,-101 -71,-69 -106,-151 -106,-249 0,-65 17,-126 50,-182 33,-56 78,-100 136,-132 58,-31 123,-47 195,-47 45,0 88,7 130,21 42,13 77,31 107,53 29,22 54,50 74,84l0 0zm740 312l74 39c-25,47 -52,85 -84,114 -32,29 -67,51 -107,66 -40,15 -85,22 -135,22 -111,0 -197,-36 -260,-108 -62,-73 -94,-154 -94,-245 0,-86 27,-163 80,-230 67,-85 157,-128 270,-128 116,0 208,44 278,131 49,62 74,139 75,232l-613 0c1,78 27,143 75,193 49,50 110,75 182,75 34,0 68,-6 101,-18 33,-12 61,-28 84,-47 23,-20 47,-52 74,-96l0 0zm1 -183c-12,-46 -29,-83 -51,-111 -23,-28 -52,-50 -89,-67 -37,-17 -76,-26 -116,-26 -67,0 -125,21 -173,64 -35,31 -62,78 -80,140l509 0 0 0zm831 408l-91 0 -229 -495 -225 495 -94 0 310 -678 16 0 313 678 0 0zm706 -225l73 39c-24,47 -52,85 -84,114 -31,29 -67,51 -106,66 -40,15 -85,22 -135,22 -111,0 -198,-36 -260,-108 -63,-73 -94,-154 -94,-245 0,-86 26,-163 80,-230 67,-85 157,-128 269,-128 116,0 209,44 278,131 49,62 74,139 75,232l-613 0c2,78 27,143 76,193 49,50 109,75 181,75 35,0 69,-6 101,-18 33,-12 61,-28 84,-47 23,-20 48,-52 75,-96l0 0zm1 -183c-12,-46 -29,-83 -52,-111 -22,-28 -52,-50 -89,-67 -36,-17 -75,-26 -116,-26 -67,0 -124,21 -172,64 -35,31 -62,78 -80,140l509 0 0 0zm829 183l73 39c-24,47 -52,85 -84,114 -31,29 -67,51 -106,66 -40,15 -85,22 -135,22 -111,0 -198,-36 -260,-108 -63,-73 -94,-154 -94,-245 0,-86 26,-163 79,-230 67,-85 158,-128 270,-128 116,0 209,44 278,131 49,62 74,139 75,232l-613 0c2,78 27,143 76,193 49,50 109,75 181,75 35,0 69,-6 101,-18 33,-12 61,-28 84,-47 23,-20 48,-52 75,-96l0 0zm0 -183c-11,-46 -28,-83 -51,-111 -22,-28 -52,-50 -89,-67 -36,-17 -75,-26 -116,-26 -67,0 -124,21 -172,64 -36,31 -62,78 -80,140l508 0 0 0zm392 -532l0 710 -89 0 0 -710 89 0zm-44 802c21,0 39,7 54,22 15,15 22,33 22,55 0,21 -7,39 -22,55 -15,15 -33,22 -54,22 -21,0 -39,-7 -54,-22 -14,-16 -22,-34 -22,-55 0,-22 8,-40 22,-55 15,-15 33,-22 54,-22z"/>
  </g>
  <path class="fil2" d="M21593 1681l-98 0 0 -433 -3 0 -199 433 -53 0 -194 -433 -4 0 0 433 -92 0 0 -600 115 0 204 450 3 0 207 -450 114 0 0 600zm-719 -511l-190 0 0 511 -101 0 0 -511 -186 0 0 -89 477 0 0 89z"/>
 </g>
</svg>
