<svg xmlns="http://www.w3.org/2000/svg" viewBox="0 0 227 31"><path fill="#353534" d="M4 21h2.5C8.1 17 9 13.3 9 5.8V3h16v18h2.5l-.6 9H23v-5H9.1l-.3 5H4v-9zM14 7v2.8c0 4.6-1.1 7.2-2.4 11.2H20V7h-6zM28.4 16.8c0-4.8 3.9-8.8 9.1-8.8 5.2 0 9.1 3.9 9.1 8.8 0 4.8-3.9 8.8-9.1 8.8-5.2-.1-9.1-3.9-9.1-8.8zm13.5 0c0-2.5-1.8-4.6-4.4-4.6-2.7 0-4.4 2.1-4.4 4.6 0 2.5 1.8 4.6 4.4 4.6 2.8 0 4.4-2.1 4.4-4.6z"/><path fill="#009247" d="M49 3h19v22h-5V7h-9v18h-5V3zM107 8v17h-5V12h-4.4c0 11-1.9 13.1-6.1 13.1-.6 0-1.8 0-2.4-.2l.3-3.8h1c1.8 0 2.7-1.1 2.7-13.1H107zM109.5 29.1l1.6-3.5c.6.4 1.4.7 2 .7.8 0 1.3-.4 1.7-1.3l-6.6-17h5.1l3.8 11.5L120.8 8h5l-6.5 17.4c-1.3 3.4-2.7 4.8-5.5 4.8-1.8 0-3.1-.4-4.3-1.1zM132 13.6c0 1.8 1 2.8 2.5 2.8 1.3 0 2.5-.3 3.5-.8V8h4v17h-4v-5.7c-2 .6-3.1 1.1-4.8 1.1-3.4 0-6.2-1.9-6.2-5.4V8h5v5.6zM146 8h5v7.2l5.7-7.2h5.5l-6.2 7 7 10h-5.6l-4.3-6.3-2 2.4V25h-5V8zM180 25h-5v-9.6l-6.2 9.6H164V8h5v10.2L175.5 8h4.5v17z"/><path fill="#353534" d="M192 8h5v7.2l5.9-7.2h5.5l-6.2 7 7 10h-5.6l-4.4-6.3-2.1 2.4V25h-5V8z"/><path fill="#353534" d="M209.7 10.8c1.7-1.6 4.2-2.6 7.1-2.6 3.6 0 6.4 1.9 6.4 4.6 0 2-1.1 3.1-2.6 3.8 1.8.6 3 1.8 3 3.9 0 2.9-2.8 5.1-6.8 5.1-3.2 0-5.7-1-7.7-2.7l2.2-3c1.4 1.2 3.2 1.9 5.1 1.9 1.4 0 2.5-.9 2.5-1.9 0-.9-1-1.8-2.8-1.8H214v-3h2c1.5 0 2.4-.7 2.4-1.6 0-.9-.9-1.5-2.2-1.5-1.8 0-3.4.7-4.6 1.8l-1.9-3z"/><circle fill="#353534" cx="185.8" cy="25.2" r="2.9"/><path fill="#009247" d="M84.6 9.4c0-.1.1-.2.1-.4 0-.7-.5-1-1.2-1h-1.6l-.5-.7.8-.9c1.1.4 2.3.2 3.2-.7 1.2-1.2 1.2-3 0-4.2-1.2-1.2-3-1.2-4.2 0-.9.9-1.1 2.1-.7 3.2l-.8.8-.8-.8c.4-1.1.2-2.3-.7-3.2-1.2-1.2-3-1.2-4.2 0-1.2 1.2-1.2 3 0 4.2.9.9 2.1 1.1 3.2.7l.8.9-.5.7h-1.7c-.7 0-1.2.4-1.2 1.1 0 .1 0 .2.1.4-2.5 1.6-4.1 4.3-4.1 7.4 0 4.9 3.9 8.7 9.1 8.7 5.2 0 9.1-3.9 9.1-8.8-.1-3.2-1.7-5.9-4.2-7.4zM83 20.6v1.2c0 .3-.4.3-.6.3h-5.1c-.3-.1-.3-.1-.3-.4v-1.2c-1-1-3-4.4-1-4.9v-4.3c0-.6.5-1 1-1s1 .3 1 1V13s.4-.2.8-.2.9.2 1.3.8c0 0 .3-.2.7-.2.4 0 .9.2 1.2.8h.1c.4 0 1.5.1 1.8 1.6.3 1.3.1 2.9-.9 4.8z"/></svg>