<svg width="241" height="63" viewBox="0 0 241 63" xmlns="http://www.w3.org/2000/svg" xmlns:xlink="http://www.w3.org/1999/xlink"><title>Group</title><desc>Created using Figma</desc><g transform="translate(-3 -9)"><use xlink:href="#a" fill="#499E69"/><use xlink:href="#b" fill="#485156"/></g><use xlink:href="#c" transform="translate(20 43)" fill="#687B85"/><defs><path id="a" d="M110.313 13.495h.65c2.31.014 4.418.553 6.32 1.617 1.905 1.064 3.382 2.533 4.43 4.41 1.065 1.86 1.597 3.946 1.597 6.256 0 2.323-.532 4.43-1.596 6.32-1.063 1.89-2.533 3.366-4.41 4.43-1.874 1.05-3.96 1.59-6.256 1.617h-.735v4.115h-3.905v-4.115h-.588c-2.337 0-4.465-.532-6.382-1.596-1.904-1.065-3.388-2.535-4.452-4.41-1.05-1.876-1.574-3.983-1.574-6.32 0-2.338.524-4.444 1.574-6.32 1.064-1.876 2.548-3.345 4.45-4.41 1.92-1.063 4.047-1.595 6.384-1.595h.588V9.17h3.905v4.325zm-4.493 3.17c-2.63 0-4.717.812-6.256 2.436-1.526 1.61-2.29 3.85-2.29 6.72 0 2.883.764 5.13 2.29 6.74 1.525 1.595 3.625 2.393 6.298 2.393h.546V16.665h-.588zm4.493 0v18.288h.588c2.675 0 4.76-.82 6.258-2.456 1.512-1.652 2.268-3.892 2.268-6.72 0-2.8-.756-5.017-2.268-6.655-1.498-1.638-3.61-2.456-6.34-2.456h-.505zm32.166 1.617h3.884V41h-3.885V24.434L132 41h-3.884V18.282h3.884V34.87L142.48 18.28zM171.16 41h-3.884v-9.7H156.84V41h-3.904V18.282h3.905v9.847h10.436V18.28h3.884V41zm20.282 0c-.224-.448-.406-1.246-.546-2.394-1.805 1.876-3.96 2.814-6.466 2.814-2.24 0-4.08-.63-5.522-1.89-1.428-1.273-2.142-2.883-2.142-4.83 0-2.364.896-4.198 2.688-5.5 1.805-1.316 4.34-1.973 7.6-1.973h3.78v-1.785c0-1.358-.406-2.436-1.218-3.233-.812-.813-2.01-1.22-3.59-1.22-1.386 0-2.548.35-3.486 1.05-.938.7-1.407 1.547-1.407 2.54h-3.905c0-1.133.4-2.224 1.197-3.274.812-1.064 1.903-1.904 3.275-2.52 1.386-.616 2.905-.924 4.556-.924 2.618 0 4.668.658 6.152 1.974 1.484 1.302 2.254 3.1 2.31 5.396v10.456c0 2.086.266 3.744.798 4.976V41h-4.074zm-6.445-2.96c1.217 0 2.372-.315 3.464-.945 1.093-.63 1.884-1.45 2.373-2.457v-4.66h-3.044c-4.76 0-7.14 1.392-7.14 4.177 0 1.218.406 2.17 1.218 2.856.812.687 1.855 1.03 3.13 1.03zm34.37 2.96h-3.884v-9.7h-10.435V41h-3.905V18.282h3.905v9.847h10.435V18.28h3.884V41zm15.37-2.75c1.385 0 2.596-.42 3.632-1.26 1.034-.84 1.608-1.89 1.72-3.15h3.675c-.07 1.302-.518 2.54-1.344 3.717-.825 1.175-1.93 2.113-3.316 2.813-1.372.7-2.828 1.05-4.368 1.05-3.093 0-5.557-1.03-7.39-3.087-1.82-2.07-2.73-4.9-2.73-8.482v-.65c0-2.21.406-4.178 1.218-5.9.812-1.72 1.974-3.058 3.485-4.01 1.525-.952 3.324-1.428 5.395-1.428 2.548 0 4.66.763 6.34 2.29 1.695 1.525 2.598 3.505 2.71 5.94h-3.675c-.112-1.47-.672-2.673-1.68-3.61-.993-.952-2.225-1.428-3.695-1.428-1.973 0-3.506.714-4.598 2.14-1.078 1.415-1.617 3.466-1.617 6.153v.735c0 2.617.54 4.633 1.617 6.047 1.078 1.413 2.618 2.12 4.62 2.12z"/><path id="b" d="M22.508 13.747H7.768V41H3.717V10.43h18.792v3.317zm17.91 4.535V41h-3.906V21.495h-7.726l-.462 8.503c-.252 3.905-.91 6.698-1.974 8.378-1.05 1.68-2.722 2.554-5.018 2.624h-1.554v-3.422l1.113-.084c1.26-.14 2.164-.868 2.71-2.184.545-1.316.895-3.75 1.05-7.307l.42-9.72h15.347zM60.677 41c-.223-.448-.405-1.246-.545-2.394-1.806 1.876-3.962 2.814-6.467 2.814-2.24 0-4.08-.63-5.522-1.89-1.428-1.273-2.142-2.883-2.142-4.83 0-2.364.896-4.198 2.688-5.5 1.806-1.316 4.34-1.973 7.6-1.973h3.78v-1.785c0-1.358-.406-2.436-1.218-3.233-.812-.813-2.01-1.22-3.59-1.22-1.386 0-2.548.35-3.486 1.05-.938.7-1.406 1.547-1.406 2.54h-3.906c0-1.133.4-2.224 1.197-3.274.813-1.064 1.905-1.904 3.277-2.52 1.385-.616 2.904-.924 4.556-.924 2.617 0 4.668.658 6.15 1.974 1.485 1.302 2.255 3.1 2.31 5.396v10.456c0 2.086.267 3.744.8 4.976V41h-4.074zm-6.445-2.96c1.218 0 2.373-.315 3.464-.945 1.092-.63 1.883-1.45 2.373-2.457v-4.66h-3.045c-4.76 0-7.138 1.392-7.138 4.177 0 1.218.406 2.17 1.218 2.856.81.687 1.854 1.03 3.128 1.03zM70.4 41V18.282h8.86c3.024 0 5.34.532 6.95 1.596 1.624 1.05 2.436 2.596 2.436 4.64 0 1.05-.315 2.002-.945 2.855-.63.84-1.56 1.484-2.792 1.932 1.372.322 2.47.952 3.297 1.89.84.938 1.26 2.057 1.26 3.36 0 2.085-.77 3.68-2.31 4.786-1.526 1.107-3.69 1.66-6.488 1.66H70.4zm3.884-9.973v6.845h6.425c1.623 0 2.834-.3 3.63-.903.813-.603 1.22-1.45 1.22-2.542 0-2.267-1.667-3.4-4.998-3.4h-6.278zm0-3.108h5.018c3.64 0 5.46-1.064 5.46-3.192s-1.722-3.226-5.166-3.296h-5.312v6.487z"/><path id="c" d="M1.38 17V7.49h3.71c1.264 0 2.234.223 2.908.668.68.44 1.02 1.087 1.02 1.943 0 .44-.132.838-.396 1.196-.264.352-.653.62-1.17.81.575.133 1.035.397 1.38.79.353.392.528.86.528 1.406 0 .873-.322 1.54-.966 2.004-.64.463-1.544.694-2.716.694H1.38zm1.626-4.175v2.865h2.69c.68 0 1.186-.125 1.52-.377.34-.253.51-.607.51-1.064 0-.95-.698-1.425-2.092-1.425H3.006zm0-1.3h2.1c1.524 0 2.286-.446 2.286-1.337 0-.89-.72-1.35-2.163-1.38H3.005v2.716zm10.283-.756h2.47c1.077.01 1.93.292 2.556.842.627.55.94 1.298.94 2.242 0 .95-.32 1.71-.966 2.285-.645.573-1.512.86-2.6.86h-4.027V7.49h1.626v3.28zM22.65 17h-1.635V7.49h1.634V17zm-9.36-4.904v3.577h2.416c.61 0 1.08-.155 1.415-.466.335-.316.502-.747.502-1.292 0-.527-.164-.958-.492-1.292-.322-.34-.776-.516-1.362-.527h-2.48zm12.12 3.577l.562-.694c.633-.822.993-2.052 1.08-3.693l.15-3.797h6.126v8.183h1.222v4.122h-1.626V17h-6.636v2.795h-1.626l.01-4.122h.737zm1.924 0h4.368v-6.68h-2.927l-.096 2.268c-.1 1.893-.55 3.364-1.346 4.413zM42.224 17c-.095-.188-.17-.52-.23-1.002-.756.785-1.658 1.178-2.707 1.178-.937 0-1.708-.264-2.31-.79-.6-.534-.898-1.208-.898-2.023 0-.99.374-1.758 1.124-2.303.756-.55 1.816-.826 3.182-.826h1.582v-.747c0-.568-.17-1.02-.51-1.353-.34-.34-.84-.51-1.503-.51-.58 0-1.066.147-1.46.44-.392.292-.588.647-.588 1.063h-1.634c0-.475.166-.932.5-1.37.34-.446.797-.798 1.37-1.056.582-.257 1.217-.386 1.91-.386 1.095 0 1.953.276 2.574.827.62.546.943 1.298.967 2.26v4.376c0 .873.11 1.568.334 2.083V17h-1.705zm-2.7-1.24c.51 0 .994-.13 1.45-.395.458-.263.79-.606.994-1.028v-1.95h-1.275c-1.992 0-2.988.582-2.988 1.748 0 .51.17.908.51 1.195.34.287.776.43 1.31.43zm13.8 1.24h-1.636v-3.445c-.714.187-1.447.28-2.197.28-1.188 0-2.096-.304-2.723-.913-.622-.61-.938-1.477-.95-2.602V7.48h1.626v2.893c.03 1.418.712 2.127 2.048 2.127.75 0 1.484-.094 2.198-.28V7.49h1.635V17zm8.48 0c-.093-.188-.17-.52-.228-1.002-.756.785-1.658 1.178-2.707 1.178-.938 0-1.71-.264-2.312-.79-.598-.534-.897-1.208-.897-2.023 0-.99.376-1.758 1.126-2.303.756-.55 1.816-.826 3.182-.826h1.582v-.747c0-.568-.17-1.02-.51-1.353-.34-.34-.84-.51-1.503-.51-.58 0-1.066.147-1.46.44-.392.292-.588.647-.588 1.063h-1.636c0-.475.168-.932.502-1.37.34-.446.796-.798 1.37-1.056.58-.257 1.216-.386 1.908-.386 1.096 0 1.954.276 2.575.827.62.546.942 1.298.966 2.26v4.376c0 .873.11 1.568.334 2.083V17h-1.705zm-2.698-1.24c.51 0 .994-.13 1.45-.395.458-.263.79-.606.994-1.028v-1.95h-1.275c-1.992 0-2.988.582-2.988 1.748 0 .51.17.908.51 1.195.34.287.776.43 1.31.43zm16.313-5.668c0-.446-.17-.797-.51-1.055-.34-.264-.806-.395-1.398-.395-.575 0-1.055.15-1.442.448-.38.3-.57.65-.57 1.055H69.88c0-.827.346-1.503 1.037-2.03.69-.528 1.555-.792 2.592-.792 1.113 0 1.98.24 2.6.72.622.476.933 1.155.933 2.04 0 .428-.13.82-.387 1.178-.258.358-.624.642-1.098.853 1.107.375 1.66 1.114 1.66 2.215 0 .873-.336 1.565-1.01 2.074-.674.51-1.573.765-2.698.765-1.096 0-2-.267-2.716-.8-.71-.54-1.064-1.265-1.064-2.18h1.618c0 .463.205.862.615 1.196.416.328.93.492 1.547.492.62 0 1.122-.144 1.503-.43.38-.288.57-.66.57-1.117 0-.533-.16-.914-.482-1.143-.317-.234-.812-.35-1.486-.35H71.99v-1.372h1.768c1.107-.03 1.66-.486 1.66-1.37zM85.2 17c-.093-.188-.17-.52-.227-1.002-.756.785-1.66 1.178-2.707 1.178-.938 0-1.708-.264-2.312-.79-.598-.534-.896-1.208-.896-2.023 0-.99.375-1.758 1.125-2.303.755-.55 1.816-.826 3.18-.826h1.583v-.747c0-.568-.17-1.02-.51-1.353-.34-.34-.84-.51-1.502-.51-.58 0-1.067.147-1.46.44-.392.292-.588.647-.588 1.063H79.25c0-.475.168-.932.502-1.37.34-.446.797-.798 1.37-1.056.58-.257 1.217-.386 1.908-.386 1.096 0 1.954.276 2.576.827.62.546.943 1.298.966 2.26v4.376c0 .873.112 1.568.334 2.083V17H85.2zm-2.697-1.24c.51 0 .993-.13 1.45-.395.457-.263.788-.606.993-1.028v-1.95h-1.274c-1.992 0-2.988.582-2.988 1.748 0 .51.17.908.51 1.195.34.287.776.43 1.31.43zm12.77-8.27H96.9V17h-1.627v-6.935L90.888 17h-1.626V7.49h1.626v6.944l4.385-6.944zm.44-3.463c0 .71-.243 1.28-.73 1.714-.48.43-1.113.643-1.898.643-.785 0-1.42-.217-1.907-.65-.487-.434-.73-1.003-.73-1.706h1.327c0 .41.112.733.334.967.222.23.547.343.975.343.41 0 .73-.114.958-.343.234-.228.35-.55.35-.967h1.32zm9.272 10.82l3.235-7.357h2.03V17h-1.626v-6.917L105.548 17h-1.125l-3.138-7.066V17H99.66V7.49h2.11l3.215 7.357zm7.453-2.69c0-.93.182-1.77.545-2.513.37-.745.88-1.32 1.53-1.723.656-.403 1.403-.606 2.24-.606 1.296 0 2.342.45 3.14 1.345.8.896 1.203 2.088 1.203 3.576v.115c0 .926-.18 1.758-.536 2.497-.352.732-.86 1.303-1.52 1.714-.657.41-1.413.616-2.27.616-1.288 0-2.333-.448-3.136-1.345-.797-.895-1.196-2.082-1.196-3.56v-.113zm1.635.194c0 1.055.243 1.902.73 2.54.492.64 1.148.96 1.968.96.828 0 1.484-.324 1.97-.968.487-.65.73-1.56.73-2.725 0-1.043-.25-1.886-.747-2.53-.493-.65-1.15-.977-1.97-.977-.802 0-1.45.32-1.94.958-.494.64-.74 1.553-.74 2.743zm9.21 4.65V7.49h3.71c1.266 0 2.236.223 2.91.668.68.44 1.02 1.087 1.02 1.943 0 .44-.133.838-.397 1.196-.263.352-.653.62-1.17.81.576.133 1.036.397 1.38.79.353.392.53.86.53 1.406 0 .873-.324 1.54-.968 2.004-.64.463-1.544.694-2.716.694h-4.298zm1.627-4.175v2.865h2.69c.68 0 1.186-.125 1.52-.377.34-.253.51-.607.51-1.064 0-.95-.697-1.425-2.092-1.425h-2.628zm0-1.3h2.1c1.524 0 2.286-.446 2.286-1.337 0-.89-.72-1.35-2.162-1.38h-2.224v2.716zm12.542.632c0-.93.182-1.77.545-2.513.37-.745.88-1.32 1.53-1.723.656-.403 1.403-.606 2.24-.606 1.295 0 2.34.45 3.138 1.345.803.896 1.204 2.088 1.204 3.576v.115c0 .926-.18 1.758-.537 2.497-.35.732-.858 1.303-1.52 1.714-.657.41-1.412.616-2.268.616-1.29 0-2.335-.448-3.138-1.345-.796-.895-1.195-2.082-1.195-3.56v-.113zm1.635.194c0 1.055.243 1.902.73 2.54.492.64 1.148.96 1.968.96.826 0 1.483-.324 1.97-.968.485-.65.728-1.56.728-2.725 0-1.043-.25-1.886-.747-2.53-.492-.65-1.148-.977-1.968-.977-.803 0-1.45.32-1.943.958-.492.64-.738 1.553-.738 2.743zm16.83 4.65h-1.625v-4.06h-4.368V17h-1.635V7.49h1.634v4.122h4.368V7.49h1.626V17zm10.416-9.51V17h-1.635V8.835h-3.234l-.193 3.56c-.105 1.634-.38 2.803-.826 3.506-.44.705-1.14 1.07-2.1 1.1h-.65v-1.433l.465-.035c.527-.058.904-.363 1.133-.914.228-.55.375-1.57.44-3.058l.175-4.07h6.425zm8.48 9.51c-.092-.188-.168-.52-.227-1.002-.756.785-1.658 1.178-2.707 1.178-.94 0-1.71-.264-2.313-.79-.597-.534-.896-1.208-.896-2.023 0-.99.376-1.758 1.126-2.303.756-.55 1.816-.826 3.182-.826h1.582v-.747c0-.568-.17-1.02-.51-1.353-.34-.34-.84-.51-1.503-.51-.58 0-1.067.147-1.46.44-.392.292-.588.647-.588 1.063h-1.636c0-.475.167-.932.5-1.37.34-.446.798-.798 1.372-1.056.58-.257 1.216-.386 1.908-.386 1.095 0 1.954.276 2.575.827.62.546.942 1.298.966 2.26v4.376c0 .873.11 1.568.334 2.083V17h-1.706zm-2.697-1.24c.51 0 .993-.13 1.45-.395.457-.263.788-.606.994-1.028v-1.95h-1.275c-1.992 0-2.988.582-2.988 1.748 0 .51.17.908.51 1.195.34.287.776.43 1.31.43zm12.77-8.27h1.627V17h-1.626v-6.935L180.5 17h-1.625V7.49h1.626v6.944l4.387-6.944zm.44-3.463c0 .71-.243 1.28-.73 1.714-.48.43-1.113.643-1.898.643-.785 0-1.42-.217-1.907-.65-.485-.434-.728-1.003-.728-1.706h1.327c0 .41.11.733.333.967.222.23.548.343.975.343.41 0 .73-.114.958-.343.235-.228.352-.55.352-.967h1.318zM196.893 17h-1.626v-4.06h-4.37V17h-1.633V7.49h1.634v4.122h4.37V7.49h1.625V17z"/></defs></svg>