<svg width="103" height="40" viewBox="0 0 103 40" fill="none" xmlns="http://www.w3.org/2000/svg">
<g clip-path="url(#clip0)">
<path d="M4.66756 18.2061C4.09791 18.8022 3.70934 19.3718 3.27927 20.2244C2.92843 20.9223 2.55495 21.9598 2.40782 22.6463C2.30596 23.1066 2.27578 23.265 2.25315 23.4235C2.24183 23.5253 2.22297 23.6197 2.21542 23.631C2.20788 23.6423 2.19279 23.7592 2.18147 23.8951C2.16638 24.0271 2.14752 24.178 2.13997 24.2308C2.01925 24.9664 2.07207 27.7996 2.2192 28.3428C2.22674 28.373 2.24183 28.4824 2.25315 28.5881C2.26447 28.6899 2.29842 28.9125 2.3286 29.0785C2.36255 29.2445 2.39273 29.4218 2.40405 29.4746C2.4116 29.5274 2.44555 29.6783 2.4795 29.8141C2.74735 30.8629 3.03029 31.6287 3.45658 32.4549C3.68293 32.8963 4.42612 34.0167 4.46384 33.9752C4.47516 33.9601 4.56947 33.7489 4.67133 33.5112C5.19194 32.2663 6.01435 30.8629 6.81035 29.8669C7.297 29.2596 7.38 29.1653 7.87797 28.6673C8.80601 27.7355 9.69632 27.0904 10.8054 26.5547C11.1865 26.3698 11.9334 26.068 11.9334 26.0982C11.9334 26.102 11.8353 26.1812 11.7184 26.2717C11.2695 26.6075 10.9337 26.9244 10.2735 27.6223C10.0773 27.8336 9.17949 29.0257 9.17949 29.0785C9.17949 29.086 9.10781 29.1992 9.02104 29.3312C8.81355 29.6368 8.24768 30.7573 8.08546 31.1722C7.77611 31.972 7.51958 32.8208 7.42527 33.3603C7.41395 33.432 7.38754 33.564 7.36868 33.6508C7.34604 33.7375 7.32341 33.8884 7.31209 33.9903C7.30455 34.0884 7.27814 34.2506 7.25928 34.3525C7.24419 34.4505 7.24041 34.5411 7.25928 34.5524C7.4479 34.6656 9.4247 34.6958 10.0472 34.5901C10.1 34.5788 10.2282 34.5637 10.3301 34.5486C10.4357 34.5373 10.5451 34.5185 10.5753 34.5109C10.6055 34.5034 10.696 34.4883 10.7715 34.477C11.0242 34.4392 11.5675 34.3072 11.9711 34.1902C13.9253 33.6131 15.5513 32.6473 16.9735 31.2288C17.4073 30.7988 17.8525 30.2932 18.109 29.9462C18.1543 29.882 18.2448 29.7575 18.3165 29.6632C18.7126 29.1313 19.2446 28.2297 19.5992 27.4752C19.8104 27.0338 20.1952 26.1171 20.1952 26.0605C20.1952 26.0454 20.2179 25.9813 20.248 25.9171C20.2971 25.8077 20.6328 24.7514 20.7234 24.4194C20.8366 24.0045 21.0969 22.8652 21.1006 22.7746C21.1006 22.7256 20.6064 22.6086 20.1198 22.5483C20.0066 22.5332 19.8859 22.5181 19.8557 22.5143C19.8255 22.5068 19.6859 22.4917 19.5501 22.4804C19.4143 22.4653 19.2521 22.4464 19.1917 22.4389C18.6183 22.371 16.7962 22.3445 16.1209 22.3974C15.9247 22.4125 15.6531 22.4313 15.5173 22.4426C15.3815 22.4502 15.2231 22.4653 15.1589 22.4766C15.0986 22.4841 14.9628 22.503 14.8571 22.5143C14.6798 22.5369 14.0838 22.6275 13.8385 22.669C11.9447 22.9972 9.93022 23.8007 8.44385 24.8269C7.68557 25.3475 6.62549 26.3246 6.1992 26.8904C6.10489 27.0149 5.99926 27.1507 5.96153 27.1922C5.87099 27.2903 5.2938 28.158 5.17685 28.373L5.09008 28.5352L4.98445 28.3051C4.7581 27.8109 4.35444 26.449 4.2639 25.8718C4.25258 25.8077 4.21863 25.5965 4.18845 25.4003C4.13186 25.057 4.11677 24.94 4.04887 24.2497C4.01869 23.9365 4.02623 21.8541 4.06018 21.7221C4.06773 21.6806 4.09036 21.5448 4.10168 21.4203C4.11677 21.2958 4.13563 21.1524 4.14318 21.0996C4.15072 21.0468 4.16959 20.9299 4.1809 20.8355C4.2639 20.2282 4.55438 19.0851 4.80714 18.3759C4.89014 18.1457 4.9505 17.9533 4.94295 17.9458C4.93541 17.9382 4.81091 18.0552 4.66756 18.2061Z" fill="#248536"/>
<path d="M12.32 18.6277C15.5442 18.6277 18.0379 17.3683 19.8515 15.8317V8.17429H12.1941V11.5244H16.0984V14.0433C15.116 14.7486 13.8565 15.1013 12.446 15.1013C9.32252 15.1013 7.10589 12.7335 7.10589 9.5093C7.10589 6.46144 9.34771 3.96773 12.1689 3.96773C14.2092 3.96773 15.4182 4.62264 16.7785 5.75615L19.2218 2.80904C17.383 1.24732 15.4686 0.3909 12.2948 0.3909C6.95476 0.3909 3.05047 4.4967 3.05047 9.5093C3.05047 14.7738 6.82881 18.6277 12.32 18.6277ZM22.1734 18.3254H26.0021V13.338C26.0021 10.1138 27.5639 8.57731 30.1079 8.57731H30.3094V4.57227C28.0424 4.47151 26.783 5.68058 26.0021 7.54456V4.82416H22.1734V18.3254ZM37.7231 18.6277C40.1664 18.6277 41.98 17.6705 43.2395 16.1088L41.048 14.1693C39.9901 15.1516 39.0581 15.5547 37.7734 15.5547C36.0606 15.5547 34.8515 14.6479 34.4737 12.9098H43.8692C43.8944 12.5572 43.9196 12.2045 43.9196 11.9023C43.9196 8.07353 41.8541 4.57227 37.3452 4.57227C33.4158 4.57227 30.6702 7.74608 30.6702 11.6C30.6702 15.7814 33.6676 18.6277 37.7231 18.6277ZM34.4233 10.5169C34.7256 8.77882 35.7583 7.64532 37.3452 7.64532C38.9573 7.64532 39.9649 8.80401 40.1916 10.5169H34.4233ZM52.1634 18.6277C54.6068 18.6277 56.4204 17.6705 57.6798 16.1088L55.4884 14.1693C54.4304 15.1516 53.4984 15.5547 52.2138 15.5547C50.501 15.5547 49.2919 14.6479 48.9141 12.9098H58.3095C58.3347 12.5572 58.3599 12.2045 58.3599 11.9023C58.3599 8.07353 56.2944 4.57227 51.7856 4.57227C47.8561 4.57227 45.1105 7.74608 45.1105 11.6C45.1105 15.7814 48.108 18.6277 52.1634 18.6277ZM48.8637 10.5169C49.1659 8.77882 50.1987 7.64532 51.7856 7.64532C53.3977 7.64532 54.4052 8.80401 54.6319 10.5169H48.8637ZM60.2058 18.3254H64.0345V10.7939C64.0345 8.98034 64.9665 8.04834 66.4275 8.04834C67.8884 8.04834 68.7448 8.98034 68.7448 10.7939V18.3254H72.5736V9.58487C72.5736 6.48663 70.8859 4.57227 67.9892 4.57227C66.0496 4.57227 64.9161 5.60502 64.0345 6.73852V4.82416H60.2058V18.3254Z" fill="#248536"/>
<path d="M22.7454 34.9595H26.5741V27.428C26.5741 25.6144 27.4557 24.6824 28.8915 24.6824C30.3272 24.6824 31.1333 25.6144 31.1333 27.428V34.9595H34.962V27.428C34.962 25.6144 35.8436 24.6824 37.2794 24.6824C38.7152 24.6824 39.5212 25.6144 39.5212 27.428V34.9595H43.3499V26.1685C43.3499 22.9191 41.6371 21.2063 38.7907 21.2063C36.9519 21.2063 35.5413 21.962 34.3575 23.3474C33.6522 21.9872 32.3172 21.2063 30.5539 21.2063C28.6144 21.2063 27.4557 22.239 26.5741 23.3726V21.4582H22.7454V34.9595ZM51.7931 35.2617C55.9997 35.2617 59.1231 32.1131 59.1231 28.234C59.1231 24.3045 56.0249 21.2063 51.8435 21.2063C47.637 21.2063 44.5135 24.3549 44.5135 28.234C44.5135 32.1635 47.6118 35.2617 51.7931 35.2617ZM51.8435 31.962C49.7276 31.962 48.2919 30.2239 48.2919 28.234C48.2919 26.1937 49.6017 24.5061 51.7931 24.5061C53.909 24.5061 55.3448 26.2441 55.3448 28.234C55.3448 30.2743 54.035 31.962 51.8435 31.962ZM60.3841 34.9595H64.2129V27.428C64.2129 25.6144 65.1449 24.6824 66.6058 24.6824C68.0668 24.6824 68.9232 25.6144 68.9232 27.428V34.9595H72.7519V26.2189C72.7519 23.1207 71.0643 21.2063 68.1675 21.2063C66.228 21.2063 65.0945 22.239 64.2129 23.3726V21.4582H60.3841V34.9595ZM80.9647 35.2617C83.408 35.2617 85.2216 34.3046 86.4811 32.7428L84.2897 30.8033C83.2317 31.7857 82.2997 32.1887 81.0151 32.1887C79.3022 32.1887 78.0932 31.2819 77.7153 29.5438H87.1108C87.136 29.1912 87.1612 28.8386 87.1612 28.5363C87.1612 24.7076 85.0957 21.2063 80.5869 21.2063C76.6574 21.2063 73.9118 24.3801 73.9118 28.234C73.9118 32.4154 76.9093 35.2617 80.9647 35.2617ZM77.665 27.1509C77.9672 25.4129 79 24.2794 80.5869 24.2794C82.199 24.2794 83.2065 25.438 83.4332 27.1509H77.665ZM91.0879 39.0653C93.3801 39.0653 94.4884 38.0325 95.5212 35.2869L100.71 21.4582H96.7302L93.7831 30.6522L90.7101 21.4582H86.6547L91.9443 35.0099C91.6169 35.69 91.2642 35.8915 90.6093 35.8915C90.1055 35.8915 89.4758 35.6648 88.972 35.3625L87.6874 38.1333C88.6698 38.7126 89.7025 39.0653 91.0879 39.0653Z" fill="#E60A80"/>
</g>
<defs>
<clipPath id="clip0">
<rect width="102.439" height="40" fill="white"/>
</clipPath>
</defs>
</svg>
