<svg id="Layer_1" data-name="Layer 1" xmlns="http://www.w3.org/2000/svg" width="106" height="20" viewBox="0 0 106 20">
  <defs>
    <style>
      .cls-1 {
        fill: #fff;
        fill-rule: evenodd;
      }
    </style>
  </defs>
  <title>logo_k24_txt-white</title>
  <g>
    <path class="cls-1" d="M15.645,5.931a14.422,14.422,0,0,1,4.845-.864c3.685,0,6.151,1.342,6.151,6.05s-2.068,6.119-5.411,6.119a6.935,6.935,0,0,1-3.447-.819V20H15.645V5.931Zm2.138,8.03c0,.887,1.229,1.388,2.707,1.388,2.343,0,3.9-.864,3.9-4.186,0-3.548-1.556-4.185-3.9-4.185a8.251,8.251,0,0,0-2.707.41ZM38.674,16.6a15.4,15.4,0,0,1-3.935.637c-3.412,0-6.167-1.41-6.167-6.141,0-4.572,2.573-6.028,5.962-6.028,3.457,0,4.981,1.274,4.867,6.528H30.869c.023,3.094,1.777,3.754,4.12,3.754a12.458,12.458,0,0,0,3.275-.546l.41,1.8ZM30.891,9.843h6.372c-.114-2.456-.773-2.98-2.638-2.98C32.532,6.863,31.073,7.546,30.891,9.843Zm22.031-4.76v9.924h2.16l-.5,4.492H52.877V16.917H42.934V19.5H41.251l-.523-4.492h1.979a44.033,44.033,0,0,0,1.729-9.924ZM46.437,6.994a50.345,50.345,0,0,1-1.478,8.013h5.728V6.994Zm18.726,9.923H67.3V5.083H65.313a86.394,86.394,0,0,1-6.2,8.673V5.083H56.956V16.917h2.161c1.865-2.411,4.454-5.254,6.046-8.052ZM76.417,6.952h4.818V5.042H69.317V6.952h4.938v9.965h2.161ZM14.343,3.021H11.505L6.481,8.812H3.3V3.021H1v13.9H3.3V10.7H6.385l5.12,6.214h2.838L8.47,9.888Z"/>
    <path class="cls-1" d="M103.477,10.621V.969h-3.321c-1.943,2.275-4.4,6.814-4.822,7.353l-2.07,3.628v.668l7.955-.058-.035,4.432h1.591l.666,0,.036-4.436h2.19V10.621Zm-7.348.12,5.1-7.931c0,2.616.009,5.233.017,7.849ZM87.289.506c3.889,0,5.755,1.128,5.755,4.6,0,3.2-1.069,4.743-8.1,9.83h8.03v2H81.853V15.077c8.257-6.514,8.758-7.251,8.757-9.806,0-2.072-1-2.647-3.48-2.647a12.714,12.714,0,0,0-4.049.622L82.558,1.2A17.93,17.93,0,0,1,87.289.506Z"/>
  </g>
</svg>
