<svg xmlns="http://www.w3.org/2000/svg" viewBox="0 0 457.54 126"><defs><style>.cls-1{fill:#56b8ff;}.cls-2{fill:#fff;}.cls-3{fill:#191314;}</style></defs><title>Ресурс 1</title><g id="Слой_2" data-name="Слой 2"><g id="Слой_1-2" data-name="Слой 1"><circle class="cls-1" cx="63" cy="63" r="63"/><polygon class="cls-2" points="96.71 62.18 96.71 54.03 88.27 54.03 88.27 37.24 84.12 37.24 62.92 63.12 41.71 37.24 37.56 37.24 37.56 54.03 29.13 54.03 29.13 62.18 37.56 62.18 37.56 69.06 29.13 69.06 29.13 77.21 37.56 77.21 37.56 87.94 50.54 87.94 50.54 67.12 60.8 79.11 64.95 79.11 75.29 67.04 75.29 87.94 88.27 87.94 88.27 77.21 96.71 77.21 96.71 69.06 88.27 69.06 88.27 62.18 96.71 62.18"/><path class="cls-1" d="M155.18,51.62h4.21c.08.08,1.64,3.55,4.71,10.44l4.84,10.81h0l9.53-21.25h4.23l.06.06V78l-.06,0h-3.58l0,0V58.74h0l-8.58,19.17-.07.08h-3a7.91,7.91,0,0,1-.54-1.16l-8.11-18.09h0V78l0,0h-3.58l-.06,0V51.68Z"/><path class="cls-1" d="M196.4,51.62h14.16l0,0V55.1H199.86v8h8.48l0,0v3.43h-8.5v8h10.72V78h-14.2V51.64Z"/><path class="cls-1" d="M234.19,51.62h.06a12.27,12.27,0,0,1,8.86,3.79,13.08,13.08,0,0,1,2.07,2.75l.2.4c-1.74.91-2.77,1.44-3.1,1.59a8.9,8.9,0,0,0-1.35-2,8.25,8.25,0,0,0-1.67-1.47,8.67,8.67,0,0,0-5-1.63,9,9,0,0,0-7.14,3.55A10.21,10.21,0,0,0,225,64.8a9.94,9.94,0,0,0,3.25,7.4,8.88,8.88,0,0,0,12.68-.75,10,10,0,0,0,2.2-4.2H236.5l0-.06V63.82h0v0l7.19,0h3.26l.06.06a22.93,22.93,0,0,1-.35,3.62A12.88,12.88,0,0,1,244.82,72a12.47,12.47,0,0,1-10.61,6,12.44,12.44,0,0,1-8.45-3.35,13.35,13.35,0,0,1-4.22-9.82v-.07A13.43,13.43,0,0,1,225.72,55,12.67,12.67,0,0,1,227,54,12,12,0,0,1,234.19,51.62Z"/><path class="cls-1" d="M270.91,51.62s.56,1.3,1.57,3.88L281.63,78h-3.8a4.72,4.72,0,0,1-.53-1.2l-1.82-4.47H263L260.67,78h-3.73l9.12-22.51,1.59-3.86ZM264.4,68.83h9.66l-4.81-11.89s-.7,1.62-2,4.87Z"/><path class="cls-3" d="M303.78,51.62h.06a12.25,12.25,0,0,1,8.86,3.79,13.52,13.52,0,0,1,2.08,2.75l.19.4c-1.74.91-2.77,1.44-3.1,1.59a8.9,8.9,0,0,0-1.35-2,8.25,8.25,0,0,0-1.67-1.47,8.67,8.67,0,0,0-5-1.63,9.05,9.05,0,0,0-7.14,3.55,10.2,10.2,0,0,0-2.1,6.17,10,10,0,0,0,3.24,7.4,8.88,8.88,0,0,0,12.68-.75,9.93,9.93,0,0,0,2.2-4.2h-6.63l0-.06V63.82h0v0l7.19,0h3.26l.06.06a24.75,24.75,0,0,1-.34,3.62A13.26,13.26,0,0,1,314.42,72a12.49,12.49,0,0,1-10.62,6,12.46,12.46,0,0,1-8.45-3.35,13.34,13.34,0,0,1-4.21-9.82v-.07A13.39,13.39,0,0,1,295.32,55a11.88,11.88,0,0,1,1.26-1A12,12,0,0,1,303.78,51.62Z"/><path class="cls-3" d="M329.06,51.62h8.68a9.33,9.33,0,0,1,7.1,3.14,8.55,8.55,0,0,1,2.07,5.55,8.39,8.39,0,0,1-3,6.41,8.6,8.6,0,0,1-2.81,1.66q0,.09,3.53,6.11l2,3.46,0,0h-4.09a15,15,0,0,1-1-1.73c-2.54-4.47-3.91-6.89-4.09-7.27h-5v9l0,0h-3.37L329,78V51.68Zm3.4,3.52V65.5h5.45a5.74,5.74,0,0,0,4.46-2.15,4.94,4.94,0,0,0,1.05-2.93v-.24a5,5,0,0,0-2.27-4,6.42,6.42,0,0,0-3.91-1.05h-4.72Z"/><path class="cls-3" d="M369.59,51.62h.06a12.4,12.4,0,0,1,9.17,4.09,13.6,13.6,0,0,1-.63,18.85,12.37,12.37,0,0,1-17.05.07A13.52,13.52,0,0,1,359,72a13.33,13.33,0,0,1-2-7.14v-.07A13.43,13.43,0,0,1,361.12,55l1.21-1A12.4,12.4,0,0,1,369.59,51.62ZM360.4,64.8a9.94,9.94,0,0,0,3.25,7.4A8.91,8.91,0,0,0,377,70.69,10.08,10.08,0,0,0,378.82,65v-.24a9.9,9.9,0,0,0-2.58-6.66,8.92,8.92,0,0,0-6.59-3,9,9,0,0,0-7.14,3.55A10.21,10.21,0,0,0,360.4,64.8Z"/><path class="cls-3" d="M401.57,51.32h.31a8.91,8.91,0,0,1,4,1,11.31,11.31,0,0,1,1.25.79c.2.15.52.42,1,.83a10.3,10.3,0,0,1,1,1.23,7.24,7.24,0,0,1,.48.79l-3.13,1.55a4.5,4.5,0,0,0-.69-.94,5.86,5.86,0,0,0-8-.34,3.73,3.73,0,0,0-.71,1,3.64,3.64,0,0,0-.43,1.71V59a2.28,2.28,0,0,0,.92,1.93,5.92,5.92,0,0,0,.79.52,14.45,14.45,0,0,0,2.78,1q1.37.39,3.3.81a11.07,11.07,0,0,1,1.8.65,9.12,9.12,0,0,1,1.46.92,8.21,8.21,0,0,1,1.17,1.19,7,7,0,0,1,1.42,4.27v.09a7.69,7.69,0,0,1-1.39,4.37,6.66,6.66,0,0,1-.84,1,8.9,8.9,0,0,1-1.37,1.08,9.32,9.32,0,0,1-1.26.65,10,10,0,0,1-3.91.79,9.71,9.71,0,0,1-5.72-1.83c-.31-.24-.63-.52-1-.83A9.68,9.68,0,0,1,393,73.25a5.59,5.59,0,0,1-.36-.74l3.15-1.46a7.25,7.25,0,0,0,.79,1.33,5.83,5.83,0,0,0,.72.81,6.88,6.88,0,0,0,1.14.87,6.2,6.2,0,0,0,3.06.81h.13a6.4,6.4,0,0,0,3.06-.79,5.75,5.75,0,0,0,.83-.62,5,5,0,0,0,.72-.88,4.33,4.33,0,0,0,.61-2.2,3.45,3.45,0,0,0-1.55-2.95,5.59,5.59,0,0,0-.81-.44,9.33,9.33,0,0,0-2-.54A24.42,24.42,0,0,1,397,64.69,6.1,6.1,0,0,1,393.15,59a7.23,7.23,0,0,1,1.68-4.65A8.83,8.83,0,0,1,396,53.17a9.82,9.82,0,0,1,1.3-.84,8.4,8.4,0,0,1,1.48-.6A10.11,10.11,0,0,1,401.57,51.32Z"/><path class="cls-3" d="M422.16,51.62h3.37l0,.06V63.07H437V51.68l.05-.06h3.39l.05.06V78l-.05,0h-3.37l0,0V66.56H425.56V78l0,0h-3.37l-.06,0V51.68Z"/><path class="cls-3" d="M454.08,51.62h3.44l0,0V78h-3.48V51.64Z"/></g></g></svg>