<svg width="230" height="44" xmlns="http://www.w3.org/2000/svg"><g fill="none" fill-rule="evenodd"><path d="M45.8 0c9.884 0 17.91 8.036 17.91 17.935 0 9.898-8.026 17.934-17.91 17.934s-17.91-8.036-17.91-17.934C27.89 8.036 35.917 0 45.8 0zm22.51 5.268l12.642-.045c.36 0 .763.045 1.121.045 1.076.045 2.107.134 3.139.359.762.134 1.524.404 2.241.718a5.43 5.43 0 0 1 1.57 1.078 5.95 5.95 0 0 1 1.03 1.347l.27.673c.134.36.224.718.314 1.078.09.449.134.898.134 1.347 0 .269 0 .538-.045.808a5.086 5.086 0 0 1-.269 1.122 4.568 4.568 0 0 1-.583 1.257c-.313.404-.672.809-1.076 1.123-.134.09-.224.18-.358.27-.135.044-.27.134-.449.224l-.627.314c.358.135.717.314 1.03.449.36.135.629.314.942.539.494.404.942.853 1.3 1.392.314.493.539.987.718 1.526.134.45.269.943.314 1.392.045.314.045.673.045.988 0 .404-.045.763-.09 1.167a9.601 9.601 0 0 1-.404 1.527c-.448 1.302-1.345 2.38-2.51 3.142a8.337 8.337 0 0 1-2.421 1.078c-.807.224-1.66.36-2.511.404-.852.045-1.704.09-2.6.09H68.309V5.268zm7.935 5.791l.045 4.49h3.138c.269 0 .583-.045.942-.045a8.23 8.23 0 0 0 1.03-.18c.315-.089.628-.224.897-.403.27-.225.494-.494.628-.808.045-.09.045-.225.09-.315.045-.134.045-.314.045-.494 0-.224-.045-.449-.09-.628-.045-.135-.09-.27-.135-.36-.179-.359-.448-.673-.807-.852-.358-.18-.717-.315-1.12-.36-.404-.045-.763-.045-1.166-.045h-3.497zm0 8.98v4.849h4.573c.359 0 .717-.045 1.076-.135.18-.045.359-.134.538-.18.224-.09.448-.224.628-.358.224-.18.403-.405.538-.674.224-.494.269-1.033.179-1.571-.045-.135-.09-.315-.135-.45-.134-.359-.403-.673-.717-.897-.403-.225-.852-.404-1.3-.45a13.28 13.28 0 0 0-1.883-.134h-3.497zm31.832-15.445c.359-.045.852 0 1.614.045.762.045 1.525.135 2.242.314.897.18 1.748.494 2.6.853a11.395 11.395 0 0 1 5.336 4.94 13.393 13.393 0 0 1 1.3 3.456c.314 1.257.448 2.56.448 3.862 0 .942-.045 1.84-.224 2.783a12.752 12.752 0 0 1-1.345 3.996c-.224.404-.448.808-.717 1.212-.628.943-1.39 1.751-2.242 2.47a12.928 12.928 0 0 1-2.51 1.526c-.808.36-1.66.674-2.512.853-.717.18-1.48.315-2.196.36-.673.09-1.256.09-1.615.09-.358 0-.896-.046-1.569-.09a12.29 12.29 0 0 1-2.241-.36c-.897-.224-1.794-.494-2.6-.898-1.122-.538-2.153-1.212-3.005-2.065-.852-.853-1.569-1.796-2.107-2.828a13.289 13.289 0 0 1-1.255-3.368 16.843 16.843 0 0 1-.404-3.681c0-.36 0-.809.045-1.392.045-.674.135-1.347.269-2.02.135-.809.404-1.617.673-2.38.403-1.078.986-2.066 1.658-3.008.628-.809 1.3-1.527 2.108-2.11a12.098 12.098 0 0 1 2.331-1.348 13.671 13.671 0 0 1 2.287-.763c.672-.18 1.39-.27 2.062-.36.628-.044 1.12-.089 1.57-.089zm.18 6.33c-.583 0-1.121.09-1.615.315-.403.135-.807.36-1.12.629a3.374 3.374 0 0 0-.673.718 6.947 6.947 0 0 0-.852 1.616c-.18.54-.314 1.123-.403 1.662-.09.449-.135.942-.135 1.391v.853c-.045.943.045 1.886.224 2.784.135.629.359 1.257.673 1.84.269.45.583.854.986 1.213a3.92 3.92 0 0 0 1.166.719c.359.134.717.224 1.076.269.269.045.538.045.807.045.672 0 1.3-.135 1.928-.36.583-.224 1.12-.673 1.524-1.167a4.49 4.49 0 0 0 .762-1.257 6.671 6.671 0 0 0 .538-1.84c.135-.854.18-1.752.18-2.65v-.628c0-.315-.045-.674-.09-1.078a11.499 11.499 0 0 0-.224-1.212l-.27-.808c-.134-.36-.268-.719-.492-1.033a4.505 4.505 0 0 0-.852-.988 3.82 3.82 0 0 0-1.3-.763 6.28 6.28 0 0 0-1.839-.27zm41.964 4.086l-8.115.09c0-.09 0-.224-.044-.449-.045-.224-.09-.494-.18-.718a4.325 4.325 0 0 0-.314-.808c-.224-.404-.493-.808-.851-1.123a2.849 2.849 0 0 0-.987-.628 4.038 4.038 0 0 0-.986-.27c-.224-.045-.449-.045-.673-.045-.314 0-.583.045-.896.09-.404.09-.807.225-1.166.45a3.672 3.672 0 0 0-1.21.987 6.105 6.105 0 0 0-.942 1.661c-.224.584-.359 1.257-.448 1.886-.045.673-.09 1.302-.09 1.975v.629c0 .27 0 .629.045.988.045.404.09.808.179 1.167.09.584.314 1.123.538 1.616.269.494.583.943.942 1.347a4.14 4.14 0 0 0 3.99 1.168c.314-.09.627-.18.896-.315a3.858 3.858 0 0 0 1.166-.898c.27-.314.493-.673.673-1.077.134-.314.224-.629.314-.988.09-.314.134-.539.134-.673h8.07c-.045.359-.09.628-.134.853 0 .18-.045.359-.09.539l-.134.538a6.41 6.41 0 0 1-.404 1.213c-.224.538-.448 1.077-.762 1.616a12.124 12.124 0 0 1-1.21 1.75 10.508 10.508 0 0 1-1.794 1.662 9.685 9.685 0 0 1-2.421 1.302c-.404.135-.852.27-1.255.36-.538.134-1.121.224-1.66.269-.762.09-1.524.134-2.286.134-1.166 0-2.286-.09-3.407-.269-.897-.135-1.749-.404-2.6-.718a10.133 10.133 0 0 1-1.973-.988c-.494-.36-.942-.718-1.39-1.123a12.06 12.06 0 0 1-2.197-3.008c-.538-1.077-.986-2.29-1.21-3.502a21.48 21.48 0 0 1-.36-3.771c0-1.123.135-2.245.36-3.368.224-1.077.537-2.155 1.03-3.142.449-.988 1.077-1.886 1.794-2.74a11.324 11.324 0 0 1 2.645-2.2c.538-.313 1.076-.628 1.659-.852.762-.314 1.57-.539 2.376-.719 1.031-.224 2.107-.314 3.183-.314 1.211 0 2.422.135 3.587.404 1.121.27 2.197.674 3.228 1.257.987.54 1.883 1.302 2.645 2.155a10.656 10.656 0 0 1 1.884 3.143c.224.54.403 1.123.538 1.706.134.584.224 1.168.313 1.751zm9.281-9.742h8.608l9.012 25.412h-8.205l-.986-3.278h-8.519l-.941 3.278h-8.025l9.056-25.412zm4.17 7.677l-2.735 9.25h5.425l-2.69-9.25zm37.167-.404l-7.935-.135c-.09-.269-.18-.538-.314-.808a2.362 2.362 0 0 0-.538-.628c-.27-.225-.628-.36-.942-.45a8.744 8.744 0 0 0-1.524-.134c-.404 0-.762.045-1.166.09a2.342 2.342 0 0 0-.717.27 1.07 1.07 0 0 0-.448.448c-.09.135-.18.27-.225.404-.044.135-.09.315-.09.45 0 .179.046.358.09.538.045.135.135.27.27.404.313.27.627.449.986.539.493.18 1.03.314 1.524.449.583.135 1.21.314 1.928.494.583.134 1.166.27 1.748.449l1.749.538c.583.18 1.166.405 1.704.674.583.27 1.076.539 1.569.898.224.135.448.36.628.539.313.269.582.583.807.943.269.448.538.897.717 1.391a7.55 7.55 0 0 1 .538 2.829c0 .449-.045.898-.135 1.347-.09.584-.269 1.167-.493 1.75a7.825 7.825 0 0 1-3.048 3.638 9.018 9.018 0 0 1-2.287 1.122c-.807.27-1.614.449-2.421.539-.852.09-1.659.135-2.51.135-.135 0-.36.044-.718 0-.359-.045-.717-.045-1.166-.09-.448-.045-.941-.09-1.39-.18-1.21-.18-2.42-.494-3.542-1.033a8.789 8.789 0 0 1-2.42-1.616 7.647 7.647 0 0 1-1.48-1.886 9.38 9.38 0 0 1-.762-1.84l-.135-.674c-.045-.27-.09-.584-.134-1.032h8.025c.045.224.09.448.135.583l.134.404c.135.315.404.539.673.764.313.269.717.449 1.12.538.583.135 1.121.18 1.704.18h.404c.269 0 .493-.045.717-.09.314-.045.538-.135.807-.27.269-.134.493-.314.672-.538.09-.135.18-.225.225-.36a1.436 1.436 0 0 0 0-1.211c-.09-.27-.314-.494-.538-.674a6.613 6.613 0 0 0-1.3-.539 73.93 73.93 0 0 1-2.063-.539c-.538-.134-1.12-.269-1.748-.448-.628-.18-1.256-.36-1.839-.54-.583-.179-1.165-.358-1.659-.583a9.566 9.566 0 0 1-1.883-1.033 5.83 5.83 0 0 1-1.434-1.347c-.404-.583-.762-1.212-.987-1.885a6.365 6.365 0 0 1-.313-.988 6.984 6.984 0 0 1-.18-1.661c0-1.078.224-2.11.628-3.098.269-.674.672-1.302 1.12-1.886.584-.628 1.211-1.212 1.973-1.616a10.22 10.22 0 0 1 2.287-.943 20.18 20.18 0 0 1 2.376-.404c.852-.045 1.614-.09 2.421-.09.852 0 1.704.045 2.556.135.852.09 1.659.27 2.466.539a9.144 9.144 0 0 1 2.286 1.167c.449.314.897.718 1.3 1.122.404.45.718.898 1.032 1.392.179.27.313.584.448.898.134.36.269.718.359 1.078.134.404.224.943.358 1.571zm4.484-7.273h8.294v8.62h7.443v-8.62h8.339V30.68h-8.34V20.623h-7.487V30.68h-8.25V5.268zM24.199 29.87l-.042.71H15.77a14.037 14.037 0 0 0-.125-.752 3.66 3.66 0 0 1-.084-.669c0-.209 0-.501-.042-.835-.041-.293-.041-.71-.041-1.212 0-.71 0-1.337-.042-1.88-.042-.501-.083-.961-.209-1.42a2.954 2.954 0 0 0-.459-1.045c-.166-.25-.417-.418-.667-.585-.25-.125-.542-.25-.835-.293a3.668 3.668 0 0 0-.709-.083H8.011v8.774H0V5.22h14.603c.25 0 .584.042.75.042.167 0 .46 0 .877.041.5.042.96.126 1.418.21.584.125 1.127.292 1.67.5a8.309 8.309 0 0 1 1.668.962c.584.417 1.043.96 1.419 1.546.166.25.333.543.458.835.209.46.334.878.46 1.337a8.41 8.41 0 0 1 .208 1.755c0 .752-.125 1.462-.334 2.173a6.908 6.908 0 0 1-.96 1.921 5.706 5.706 0 0 1-1.543 1.463 3.924 3.924 0 0 1-.918.501 9.056 9.056 0 0 1-1.001.293l.542.125c.167.042.376.084.542.125.334.084.668.21 1.002.335a4.39 4.39 0 0 1 1.126.835c.418.418.71.961.918 1.546.167.543.292 1.086.376 1.63.041.626.125 1.211.125 1.838.042.627.042 1.253.042 1.838 0 .585 0 1.17.041 1.671v.335c.042.167.042.292.084.418 0 .125.083.208.167.292a.318.318 0 0 0 .208.084h.25zM8.01 11.278v4.888h5.048a4.82 4.82 0 0 0 1.335-.334c.417-.167.75-.501 1.001-.877.042-.167.125-.334.167-.502.084-.417.125-.835.084-1.253a3.683 3.683 0 0 0-.209-.627 2.063 2.063 0 0 0-.751-.835 2.087 2.087 0 0 0-1.001-.376 10.21 10.21 0 0 0-1.127-.084H8.011z" fill="#711D9E"/><path d="M197.184 36.619h-2.242v6.824h5.245v-1.706h-3.003V36.62zm6.86-.18a3.37 3.37 0 0 0-3.229 2.065 4.567 4.567 0 0 0-.269 1.527c0 1.347.583 2.604 1.793 3.188a4.467 4.467 0 0 0 1.704.359c.538 0 2.063-.09 2.96-1.437a4.03 4.03 0 0 0 .627-2.155c0-1.437-.628-2.739-1.883-3.277a5.413 5.413 0 0 0-1.704-.27zm.044 1.706c.628 0 1.166.45 1.255 1.033.045.27.09.539.09.808a2.317 2.317 0 0 1-.403 1.527c-.225.269-.583.449-.942.404-.314 0-.583-.09-.852-.27-.314-.269-.493-.673-.493-1.571a2.436 2.436 0 0 1 .359-1.482 1.05 1.05 0 0 1 .986-.449zm6.097-1.526l-2.42 6.824h2.151l.27-.898h2.286l.269.898h2.197l-2.421-6.824h-2.332zm1.121 2.065l.718 2.514h-1.48l.762-2.514zm4.26-2.065v6.824h2.017v-4.04l2.376 4.04h2.242V36.62h-2.017v4.04l-2.377-4.04h-2.241zm13.809 1.975c-.045-.314-.135-.673-.314-.943-.18-.269-.359-.493-.628-.673a3.41 3.41 0 0 0-1.973-.494 3.41 3.41 0 0 0-1.883.404c-.627.36-1.03 1.078-.986 1.796 0 .225.045.494.134.718.18.54.628.943 1.166 1.123.448.18.942.314 1.435.404.314.045.628.18.897.314.134.09.179.18.179.36 0 .09-.045.179-.09.269-.18.27-.627.224-.672.224-.538 0-.807-.18-.942-.404-.045-.09-.045-.18-.09-.27h-2.152c0 .136.045.315.09.45.18.628.717 1.481 2.197 1.75.314.046.583.09.897.09a3.269 3.269 0 0 0 1.928-.493 2.126 2.126 0 0 0 .986-1.796 2.1 2.1 0 0 0-.135-.763 2.078 2.078 0 0 0-.582-.809 2.972 2.972 0 0 0-.852-.404l-.942-.269a2.786 2.786 0 0 1-1.166-.404c-.09-.045-.09-.135-.09-.27 0-.09.046-.18.09-.224.09-.135.225-.224.628-.224.673 0 .762.224.897.538h1.973zm-79.85 4.894h-2.108v-6.87h2.108v6.87zm7.711 0h-2.017l-1.66-2.918c-.179-.314-.358-.674-.537-1.033.045.539.045 1.033.045 1.572v2.38h-2.018v-6.87h2.062l1.48 2.559c.224.404.493.853.672 1.302-.044-.539-.044-1.033-.044-1.571v-2.29h2.017v6.87zm4.977-4.759c0-.404-.314-.673-.852-.673-.448 0-.673.134-.673.404 0 .404 1.166.583 1.435.673 1.121.314 2.331.718 2.331 2.155 0 1.437-1.165 2.335-2.959 2.335-1.927 0-3.093-.943-3.093-2.47h2.107c.045.674.448.898 1.076.898.538 0 .852-.224.852-.583 0-.135-.045-.18-.135-.27-.269-.224-1.434-.538-1.927-.673-.987-.314-1.704-.718-1.704-1.886 0-1.302 1.12-2.155 2.78-2.155 1.748 0 2.734.808 2.78 2.2l-2.018.045zm9.056-.36h-1.928v5.074h-2.107V38.37h-1.928v-1.751h5.918l.045 1.75zm6.546 5.12h-2.107l-.314-.989h-2.197l-.314.988h-2.107l2.51-6.824h2.063l2.466 6.824zm-3.318-3.638c-.134-.449-.179-.583-.269-1.032-.134.449-.134.628-.269 1.032 0 0-.134.45-.358 1.168h1.3c-.135-.36-.404-1.168-.404-1.168zm9.909 3.637h-2.018l-1.703-2.918c-.18-.314-.36-.674-.539-1.033.045.539.045 1.033.045 1.572v2.38h-2.017v-6.87h2.062l1.48 2.559c.224.404.493.853.672 1.302-.045-.539-.045-1.033-.045-1.571v-2.29h2.018v6.87h.045zm7.173-5.118h-1.928v5.073h-2.107V38.37h-1.928v-1.751h5.918l.045 1.75z" fill="#F3A10F"/><path d="M32.953 16.96a3.76 3.76 0 0 1 .956-1.34l.457-8.12c.166-2.805 1.952-3.642 3.323-1.005l1.33 3.014.207-.126.25-.125.29-.168c.29-.167.582-.335.872-.46a13.839 13.839 0 0 1 2.202-.795 12.192 12.192 0 0 1 3.697-.335 12.2 12.2 0 0 1 3.697.837c.79.335 1.537.711 2.243 1.214l1.662-3.265c1.163-2.302 2.908-1.381 2.99.586l.416 8.287v.21c0 .083 0 .167.042.293l.125.125c.498.502.872 1.13 1.08 1.8a6.64 6.64 0 0 1 .249 2.218c0 .46-.083.963-.166 1.423-.083.419-.25.88-.457 1.256a3.48 3.48 0 0 1-1.08 1.256 2.307 2.307 0 0 1-.706.376 8.857 8.857 0 0 1-.458.88c-.207.334-.041.083-.124.167-.125.21-.208.377-.333.502l-.249.335-.25.335v.042l-.331.418-.042.042-.041.084-.333.335c-.29.334-.623.627-.955.92-.333.252-.623.503-.955.754-.374.251-.748.502-1.122.67-.83.46-1.745.795-2.7 1.046-.956.21-1.911.335-2.908.377-1.33 0-2.7-.21-3.946-.628a10.859 10.859 0 0 1-3.49-1.884c-.208-.167-.374-.335-.581-.502a3.861 3.861 0 0 1-.582-.586 5.03 5.03 0 0 0-.415-.46c-.167-.168-.291-.377-.457-.545l-.042-.083c-.041-.084-.125-.126-.125-.168l-.124-.209-.083-.084-.25-.376-.207-.335-.042-.084-.415-.795a1.931 1.931 0 0 1-.29-.126 3.763 3.763 0 0 1-1.912-2.302c-.29-.879-.374-1.841-.29-2.762-.042-.796.124-1.465.373-2.135z" fill="#FFF"/><path fill="#4B5858" d="M36.414 22.633h19.023v-8.048H36.414z"/><path d="M35.785 16.354c-.578 1.996-.496 4.117.165 6.072.041.124.082.25.124.332h-.124c.041.042.082.042.124.042.082.125.082.25.165.374l.495.998c.124.208.248.416.413.624.082.125.124.208.206.291a.754.754 0 0 1 .207.291c.206.292.454.583.701.832.33.333.702.666 1.073.957a10.274 10.274 0 0 0 6.522 2.162c1.733 0 3.426-.457 4.953-1.247a7.85 7.85 0 0 0 1.816-1.248c.413-.374.784-.749 1.156-1.164l.33-.416c.165-.208.29-.416.413-.624l.371-.624c.207-.333.372-.665.496-1.04.04-.041.04-.125.082-.166.041-.166.083-.083.124-.125 0-.041 0 0 0 0h-.041a9.672 9.672 0 0 0 .454-5.614c-.042-.208-.165-.583-.165-.749-.083-.042-.083-.208-.083-.291h.371c0-.208-.04-.624-.04-.832l-.455-6.03-.619.956c-.413.624-.826 1.331-1.238 1.955-.041.041-.041.041-.041.125l-.083.083c-.083-.042-.206-.208-.33-.333.124-.208.247-.374.371-.582l.743-1.123c.124-.166.248-.374.372-.582.123-.208.248-.375.371-.583.042-.083.124-.207.165-.29.042-.084.124-.167.165-.292.124-.208.166-.166.166-.332V6.788c-.083.083-.867 1.539-.991 1.788-.33.583-.66 1.207-.99 1.789l-.66 1.206c-.084-.042-.208-.125-.249-.208l-.743-.582-1.073-.707h-.041.04a25.57 25.57 0 0 0-.66 3.077v.458c0 .166 0 .25.166.29.247.042.536 0 .784-.082.248-.042.496-.125.702-.208.206-.083.495-.208.701-.25-.082.208-.371.832-.454 1.081l-.247.5-.248.499c.289.124.619.208.908.332.289.125.62.208.908.375l1.238.623c.124.084.248.208.29.333.412.998.206 3.41-.207 4.367a1.95 1.95 0 0 1-.206.416c-.083.125-.207.083-.496.125-1.114.124-2.311.208-3.426.29-1.568.084-3.22.25-4.787.209a133.852 133.852 0 0 1-7.059-.416c-.371-.042-.743-.042-1.155-.083-.29-.042-.29 0-.372-.208-.536-1.082-.825-3.826-.289-4.783a1.49 1.49 0 0 1 .743-.5c.826-.457 1.734-.79 2.642-1.08l-.495-.79a55.019 55.019 0 0 1-.785-1.331c.66.208 1.693.707 2.394.623.372-.041.372-.29.33-.665a19.735 19.735 0 0 0-.33-1.664c-.041-.208-.454-1.497-.454-1.58l.042-.042-.042.042h-.041l-.041.042-.537.29c-.206.126-.413.25-.578.375-.165.125-.371.25-.536.416l-.537.457-.33-.582a9.657 9.657 0 0 1-.33-.582c-.413-.79-.908-1.58-1.321-2.412l-.66-1.165c-.042.291 0 .624 0 .915 0 .582-.083.458.123.79l.743 1.123c.124.208.248.375.372.583a.671.671 0 0 1 .165.29c.082.125.041.084.082.125.124.208.785 1.207.826 1.29a1.26 1.26 0 0 1-.33.332l-.785-1.206c-.33-.54-.742-1.04-1.073-1.58l-.206-.291-.083-.083c-.04 1.164-.165 2.329-.247 3.452l-.248 3.41h.413c-.124.166-.124.25-.165.333z" fill="#E2E2E2"/><path d="M45.579 22.313a60.19 60.19 0 0 0 3.86-.126c1.763-.084 3.19-.25 4.91-.418.167 0 .21-.084.335-.419.336-.879.588-2.972.21-3.976-.168-.377-.42-.46-.84-.712-2.265-1.255-5.202-1.758-7.846-1.716h-.797c-1.762 0-3.566.293-5.245.837-.923.293-1.762.67-2.6 1.172-.504.293-.546 1.214-.504 1.758 0 .963.167 1.967.503 2.888.084.126.042.168.21.168l2.098.209c.923.084 1.888.167 2.811.21.881.083 1.93.125 2.895.125z" fill="#3B7599"/><path d="M42.419 17.396c.879 0 1.592.794 1.592 1.773 0 .978-.713 1.772-1.592 1.772-.88 0-1.593-.794-1.593-1.772 0-.979.714-1.773 1.593-1.773zm6.946-.196c.947 0 1.716.797 1.716 1.779 0 .981-.769 1.778-1.716 1.778s-1.715-.797-1.715-1.778c0-.982.768-1.78 1.715-1.78z" fill="#0E4F9C"/><path d="M44.008 17.197c.438-.048.847.394.912.987.065.592-.364 1.557-.677 1.16-.415-.526-.489-.626-.632-1.002-.072-.191-.28-.383-.226-.554.106-.325.335-.56.623-.59zm6.813-.127c.482-.052.927.387.992.982.065.594-.272 1.133-.756 1.173-.438.036-.372-.339-.531-.927-.062-.229-.301-.515-.363-.704-.098-.3.368-.491.658-.523z" fill="#FFF"/><path d="M41.162 9.95c-.042.125.332 1.38.415 1.632.166.544.29 1.13.332 1.674.042.377 0 .628-.332.67-.706.083-1.745-.377-2.41-.628.042.083.707 1.172.79 1.34l.498.753a19.4 19.4 0 0 1 2.617-.545c2.742-.376 6.066-.25 8.64.586l.5-1.004c.124-.251.415-.88.456-1.088-.207.041-.457.209-.706.25a3.486 3.486 0 0 1-.706.21c-.25.084-.54.126-.79.084-.165-.042-.165-.126-.165-.293v-.46c.166-1.047.373-2.052.664-3.098h-.041c-.374-.167-.582-.293-1.04-.46-2.076-.838-4.36-.963-6.562-.46-.374.083-.79.208-1.163.376-.167.084-.374.125-.54.21-.167.083-.333.208-.457.25z" fill="#F3A10F"/><path d="M50.591 19.124c-.083.921-.54 1.423-1.412 1.34-.872-.084-1.163-.754-1.122-1.633.042-.879.499-1.381 1.413-1.34.83.085 1.163.754 1.121 1.633zm1.122-.418c-.457.46-.956.125-1.163-.377-.208-.502.124-1.256.623-1.214.29.21.54 1.088.54 1.59l.083-.083a.478.478 0 0 0 .124-.335c.125-.586-.29-1.214-.747-1.172a1.844 1.844 0 0 0-.623-.502c-.25-.126-.54-.21-.831-.251-1.33-.168-2.41.293-2.783 1.548a5.286 5.286 0 0 0 .29 2.888c.208.419.291.377.623.46a6.37 6.37 0 0 0 2.95-.083c.25-.084.208-.042.332-.21.582-.71.582-1.338.582-2.26z" fill="#CFD2D2"/><path d="M35.82 22.86h.124a2.893 2.893 0 0 0-.124-.334c-.665-1.967-.748-4.102-.167-6.111-.706 0-1.163.628-1.412 1.13-.748 1.716-.457 5.148 1.579 5.316zm19.856 0a2.008 2.008 0 0 0 1.495-1.087c.291-.628.457-1.34.499-2.051.042-.963-.208-2.302-.873-2.93a1.44 1.44 0 0 0-.83-.419c0 .21.124.544.166.754a10.25 10.25 0 0 1-.499 5.692c-.041.042-.082.042.042.042zm-7.217 2.42a7.17 7.17 0 0 1-4.944.125 3.632 3.632 0 0 0-.623-.209c-.041.084 0 .084.042.168.332.25.748.46 1.163.586 1.33.418 3.323.334 4.445-.503.083-.083.249-.083.207-.25-.083-.043-.166 0-.29.083z" fill="#4B5858"/><path d="M49.611 19.387c-.166-.042-.29-.21-.332-.377-.042-.21-.042-.419.041-.586a.572.572 0 0 0-.373 0c-.665.293-.499 1.549.207 1.507a.68.68 0 0 0 .54-.46l-.083-.084zm-6.688 0c-.166-.042-.29-.21-.332-.377-.042-.21-.042-.419.041-.586-.124-.126-.457-.084-.664.21a.859.859 0 0 0-.083.836c.207.628.872.586 1.121 0l-.083-.083z" fill="#000"/><path d="M42.632 18.424c-.083.167-.083.377-.041.586.041.167.166.335.332.377.665.083.415-1.34-.125-1.13-.083.041-.083.125-.166.167zm6.73 0c-.083.167-.083.377-.042.586.042.167.166.335.333.377.54.042.498-.921.124-1.089a.263.263 0 0 0-.249 0c-.125.042-.083.042-.166.126z" fill="#FFF"/><path d="M43.712 19.261c-.083.921-.54 1.423-1.412 1.34-.872-.084-1.163-.754-1.122-1.633.042-.879.499-1.381 1.413-1.34.83.084 1.204.754 1.121 1.633zm1.122-.418c-.457.46-.956.125-1.163-.377-.208-.502.124-1.256.623-1.214.29.21.54 1.088.54 1.59l.083-.083c.083-.084.124-.21.166-.335.125-.586-.29-1.214-.748-1.172a1.841 1.841 0 0 0-.623-.502 2.705 2.705 0 0 0-.83-.251c-1.33-.168-2.41.293-2.784 1.548a5.288 5.288 0 0 0 .291 2.888c.208.419.29.377.623.46a6.37 6.37 0 0 0 2.95-.083c.249-.084.207-.042.332-.21.54-.71.54-1.339.54-2.26z" fill="#CFD2D2"/></g></svg>